<?xml version="1.0" standalone="no"?><!DOCTYPE svg PUBLIC "-//W3C//DTD SVG 1.1//EN" "http://www.w3.org/Graphics/SVG/1.1/DTD/svg11.dtd"><svg t="1702892002461" class="icon" viewBox="0 0 1024 1024" version="1.1" xmlns="http://www.w3.org/2000/svg" p-id="4586" xmlns:xlink="http://www.w3.org/1999/xlink" width="128" height="128"><path d="M486.4 588.8H384v76.8h102.4V768h76.8v-102.4h102.4v-76.8h-102.4v-102.4h-76.8v102.4z m-256-537.6C230.4 22.755556 253.155556 0 281.6 0h460.8c28.444444 0 51.2 22.755556 51.2 51.2v76.8c0 28.444444-22.755556 51.2-51.2 51.2H281.6c-28.444444 0-51.2-22.755556-51.2-51.2V51.2zM128 460.8c0-56.888889 31.288889-136.533333 68.266667-179.2L241.777778 230.4h540.444444l45.511111 51.2c36.977778 42.666667 68.266667 122.311111 68.266667 179.2v460.8c0 28.444444-11.377778 54.044444-31.288889 71.111111S822.044444 1024 793.6 1024H230.4c-56.888889 0-102.4-45.511111-102.4-102.4V460.8z" fill="#5A5A5A" p-id="4587"></path></svg>